<svg width="80" height="80" viewBox="0 0 80 80" fill="none" xmlns="http://www.w3.org/2000/svg">
<g clip-path="url(#clip0_2072_256)">
<path fill-rule="evenodd" clip-rule="evenodd" d="M35.9869 2.66723C35.6964 2.95776 35.2936 3.125 34.8822 3.125C34.4714 3.125 34.0686 2.95776 33.7781 2.66723C33.4869 2.37671 33.3197 1.97326 33.3197 1.5625C33.3197 1.1499 33.4875 0.74829 33.7781 0.457763C34.0686 0.167236 34.4714 0 34.8822 0C35.2936 0 35.6964 0.167236 35.9869 0.457763C36.2774 0.74829 36.4447 1.15173 36.4447 1.5625C36.4447 1.97326 36.2774 2.37671 35.9869 2.66723ZM50.8227 47.2497H67.8087C74.5287 47.2497 79.9962 41.7828 79.9962 35.0628C79.9962 29.5281 76.2725 24.765 71.0827 23.3233C71.242 22.564 71.3219 21.7889 71.3219 21.0052C71.3219 14.7625 66.2432 9.68382 60.0005 9.68382C57.0885 9.68382 54.3377 10.8038 52.2704 12.735C50.7189 7.86497 47.1429 3.76586 42.4029 1.61803C41.6162 1.2622 40.6909 1.6101 40.3344 2.39623C39.9786 3.18236 40.3271 4.10826 41.1126 4.4641C45.9252 6.64488 49.2907 11.2506 49.8956 16.4837C49.9737 17.1594 50.4791 17.7063 51.1462 17.8375C51.8127 17.9687 52.4883 17.6538 52.8161 17.0581C54.2602 14.4372 57.0129 12.8088 60.0005 12.8088C64.5196 12.8088 68.1963 16.4856 68.1963 21.0052C68.1963 22.019 68.0114 23.012 67.6464 23.9563C67.4731 24.4061 67.5164 24.9102 67.7642 25.3234C68.0126 25.7367 68.4368 26.0125 68.9153 26.0705C73.4508 26.6223 76.8706 30.4882 76.8706 35.0628C76.8706 40.0597 72.8057 44.1247 67.8087 44.1247H50.8221V40.5462C50.8221 39.6838 50.1226 38.9843 49.2596 38.9843H47.1038C46.8127 38.0944 46.4538 37.2283 46.029 36.3928L47.5549 34.8669C48.1646 34.2565 48.1646 33.2672 47.5549 32.6574L41.6754 26.7779C41.3824 26.4849 40.9851 26.3201 40.5706 26.3201C40.1562 26.3201 39.7589 26.4849 39.4659 26.7779L37.94 28.3038C37.1044 27.879 36.2384 27.5201 35.3491 27.229V25.0726C35.3491 24.2102 34.649 23.5101 33.7866 23.5101H25.4724C24.6093 23.5101 23.9099 24.2102 23.9099 25.0726V27.229C23.0206 27.5195 22.1545 27.879 21.3183 28.3038L19.7925 26.7779C19.4995 26.4849 19.1021 26.3201 18.6877 26.3201C18.2733 26.3201 17.876 26.4849 17.583 26.7779L11.7041 32.6574C11.0937 33.2672 11.0937 34.2565 11.7041 34.8669L13.23 36.3928C12.8052 37.2283 12.4457 38.0944 12.1551 38.9843H9.99876C9.13573 38.9843 8.43627 39.6838 8.43627 40.5462V41.6967C5.15258 39.3115 3.125 35.4418 3.125 31.311C3.125 24.245 8.87328 18.4967 15.9393 18.4967C16.6101 18.4967 17.3016 18.5528 17.9937 18.6651C18.4289 18.7353 18.872 18.6187 19.2163 18.3447C19.5599 18.0706 19.7729 17.6648 19.8022 17.2253C20.1703 11.6607 23.562 6.77061 28.6529 4.46349C29.4384 4.10765 29.7869 3.18175 29.4311 2.39562C29.0747 1.6101 28.1494 1.26159 27.3632 1.61742C21.7193 4.17479 17.807 9.36399 16.8634 15.3997C16.5533 15.3808 16.2451 15.3717 15.9393 15.3717C7.15026 15.3717 0 22.5219 0 31.311C0 34.3786 0.874022 37.3577 2.52685 39.9261C4.00512 42.2234 6.03942 44.0942 8.43627 45.3747V48.8604C8.43627 49.7234 9.13573 50.4229 9.99876 50.4229H12.1545C12.4457 51.3122 12.8052 52.1783 13.2294 53.0144L11.7041 54.5403C11.0937 55.1501 11.0937 56.1394 11.7041 56.7498L17.583 62.6287C18.1933 63.2384 19.1821 63.239 19.7925 62.6287L21.3183 61.1034C22.1545 61.5276 23.0206 61.8871 23.9099 62.1782V64.334C23.9099 65.197 24.6093 65.8965 25.4724 65.8965H33.7866C34.649 65.8965 35.3491 65.197 35.3491 64.334V62.1782C36.2377 61.8871 37.1038 61.5276 37.94 61.1034L39.4659 62.6287C40.0762 63.2384 41.065 63.239 41.676 62.6287L47.5549 56.7498C48.1646 56.1394 48.1646 55.1507 47.5549 54.5403L46.029 53.0144C46.4538 52.1783 46.8133 51.3122 47.1038 50.4229H49.2602C50.1226 50.4229 50.8227 49.7234 50.8227 48.8604V47.2497ZM47.6971 47.2979H45.9313C45.2172 47.2979 44.5934 47.7831 44.417 48.4753C44.0588 49.8852 43.4985 51.2359 42.752 52.4907C42.3864 53.1054 42.4847 53.8891 42.99 54.3944L44.24 55.645L40.5706 59.3145L39.3206 58.0639C38.8152 57.5585 38.0309 57.4608 37.4169 57.8258C36.1608 58.5729 34.8101 59.1332 33.4014 59.4915C32.7087 59.6679 32.2241 60.291 32.2241 61.0057V62.7715H27.0349V61.0057C27.0349 60.291 26.5496 59.6673 25.8575 59.4915C24.4488 59.1332 23.0975 58.5729 21.842 57.8258C21.2274 57.4608 20.4437 57.5585 19.9383 58.0639L18.6877 59.3145L15.0183 55.645L16.2689 54.3944C16.7736 53.8891 16.8719 53.1054 16.5063 52.4907C15.7598 51.2359 15.1995 49.8845 14.8413 48.4753C14.6649 47.7831 14.0417 47.2979 13.327 47.2979H11.5612V42.1087H13.327C14.0417 42.1087 14.6649 41.6241 14.8413 40.9313C15.1995 39.522 15.7598 38.1713 16.5063 36.9158C16.8719 36.3018 16.7736 35.5175 16.2689 35.0121L15.0183 33.7621L18.6877 30.0927L19.9377 31.3433C20.4437 31.8487 21.2274 31.9463 21.842 31.5807C23.0969 30.8343 24.4482 30.274 25.8575 29.9157C26.5502 29.7393 27.0349 29.1155 27.0349 28.4014V26.6357H32.2234V28.4014C32.2234 29.1155 32.7087 29.7393 33.4008 29.9157C34.8107 30.274 36.1614 30.8343 37.4163 31.5807C38.0309 31.9463 38.8146 31.8481 39.3206 31.3433L40.5706 30.0927L44.24 33.7621L42.9894 35.0121C42.4847 35.5175 42.3864 36.3018 42.752 36.9158C43.4985 38.1713 44.0588 39.5226 44.417 40.9313C44.5934 41.6241 45.2166 42.1087 45.9313 42.1087H47.6971V47.2979ZM77.1807 66.4825L79.2186 67.6592C79.5775 67.8667 79.8393 68.2079 79.9468 68.6077C80.0542 69.0081 79.9974 69.4347 79.7905 69.7936L76.5587 75.3905C76.1272 76.1376 75.172 76.3939 74.4243 75.9624L72.387 74.7857C71.6863 75.3014 70.9362 75.7354 70.1415 76.0845V78.4356C70.1415 79.298 69.442 79.9981 68.579 79.9981H62.116C61.2536 79.9981 60.5535 79.298 60.5535 78.4356V76.0845C59.7594 75.7354 59.0087 75.3014 58.3086 74.7857L56.2706 75.9624C55.523 76.3939 54.5678 76.1376 54.1363 75.3905L50.9044 69.7936C50.6975 69.4347 50.6414 69.0081 50.7488 68.6077C50.8556 68.2073 51.1175 67.8661 51.4763 67.6592L53.5143 66.4825C53.4679 66.0522 53.4441 65.6194 53.4441 65.1861C53.4441 64.7533 53.4679 64.32 53.5143 63.8897L51.4763 62.7135C51.1175 62.506 50.8556 62.1654 50.7488 61.7644C50.6414 61.3647 50.6975 60.938 50.9044 60.5791L54.1363 54.9822C54.5678 54.2352 55.523 53.9788 56.2706 54.4103L58.3086 55.5865C59.0087 55.0713 59.7594 54.6374 60.5535 54.2883V51.9372C60.5535 51.0741 61.2536 50.3747 62.116 50.3747H68.579C69.442 50.3747 70.1415 51.0741 70.1415 51.9372V54.2883C70.9362 54.6374 71.6863 55.0713 72.387 55.5865L74.4243 54.4103C75.172 53.9788 76.1272 54.2352 76.5587 54.9822L79.7905 60.5791C79.9974 60.938 80.0542 61.3647 79.9468 61.765C79.8393 62.1654 79.5775 62.5066 79.2186 62.7135L77.1807 63.8903C77.227 64.32 77.2508 64.7533 77.2508 65.1867C77.2508 65.6194 77.227 66.0528 77.1807 66.4825ZM74.126 65.1867C74.126 64.5824 74.0643 63.9776 73.9422 63.3904C73.8049 62.73 74.1064 62.0568 74.6905 61.7193L76.3031 60.7885L74.6338 57.8979L73.0194 58.8299C72.4353 59.1674 71.6998 59.0917 71.1969 58.6413C70.2875 57.8283 69.2425 57.2246 68.0908 56.8462C67.4499 56.635 67.0166 56.0363 67.0166 55.3618V53.4997H63.6786V55.3618C63.6786 56.0363 63.2452 56.635 62.6038 56.8462C61.4526 57.2246 60.4077 57.8283 59.4983 58.6413C58.9954 59.0917 58.2599 59.1674 57.6758 58.8299L56.0608 57.8979L54.3921 60.7885L56.0047 61.7193C56.5881 62.0568 56.8903 62.73 56.7529 63.3904C56.6309 63.9782 56.5692 64.5824 56.5692 65.1867C56.5692 65.7903 56.6309 66.3945 56.7529 66.9823C56.8903 67.6427 56.5881 68.3165 56.0047 68.6535L54.3921 69.5842L56.0608 72.4749L57.6758 71.5429C58.2605 71.2053 58.9954 71.2816 59.4983 71.7315C60.4077 72.5444 61.4526 73.1487 62.6038 73.5271C63.2452 73.7377 63.6786 74.3364 63.6786 75.0115V76.873H67.0166V75.0115C67.0166 74.3364 67.4499 73.7377 68.0908 73.5271C69.2425 73.1487 70.2875 72.5444 71.1969 71.7315C71.6998 71.281 72.4353 71.2053 73.0194 71.5429L74.6338 72.4749L76.3031 69.5842L74.6905 68.6535C74.1064 68.3165 73.8049 67.6427 73.9422 66.9823C74.0643 66.3952 74.126 65.7909 74.126 65.1867ZM59.7228 64.8229C59.7228 61.7211 62.246 59.1979 65.3472 59.1979C68.449 59.1979 70.9722 61.7211 70.9722 64.8229C70.9722 67.9241 68.449 70.4473 65.3472 70.4473C62.246 70.4473 59.7228 67.9241 59.7228 64.8229ZM62.8472 64.8229C62.8472 66.2011 63.969 67.3223 65.3472 67.3223C66.726 67.3223 67.8472 66.2011 67.8472 64.8229C67.8472 63.4441 66.726 62.3229 65.3472 62.3229C63.969 62.3229 62.8472 63.4441 62.8472 64.8229ZM18.8055 44.7033C18.8055 38.7353 23.6608 33.8793 29.6295 33.8793C35.5975 33.8793 40.4528 38.7353 40.4528 44.7033C40.4528 50.6719 35.5975 55.5273 29.6295 55.5273C23.6608 55.5273 18.8055 50.6719 18.8055 44.7033ZM21.9306 44.7033C21.9306 48.9489 25.384 52.4029 29.6296 52.4029C33.8745 52.4029 37.3285 48.9489 37.3285 44.7033C37.3285 40.4583 33.8745 37.005 29.6296 37.005C25.384 37.005 21.9306 40.4583 21.9306 44.7033Z" fill="url(#paint0_linear_2072_256)"/>
</g>
<defs>
<linearGradient id="paint0_linear_2072_256" x1="19.9985" y1="68.9987" x2="79.9857" y2="-0.0110868" gradientUnits="userSpaceOnUse">
<stop stop-color="#3E40E4"/>
<stop offset="1" stop-color="#F06F66"/>
</linearGradient>
<clipPath id="clip0_2072_256">
<rect width="80" height="80" fill="white"/>
</clipPath>
</defs>
</svg>
